<?xml version="1.0" encoding="UTF-8" standalone="no"?><!-- Created with Inkscape (http://www.inkscape.org/) --><svg xmlns="http://www.w3.org/2000/svg" height="600" width="600" version="1.1"> <path fill="#000" d="M217.56,32.344c-53.42,16.435-100.02,48.433-134.53,90.686l103.85,103.85c19.573-19.573,44.171-34.111,71.719-41.469l-41.04-153.07zm164.88,0-41.031,153.06c27.548,7.358,52.146,21.896,71.719,41.469l103.84-103.84c-34.51-42.253-81.11-74.251-134.53-90.686zm-319.69,118.94c-27.072,43.1-42.75,94.07-42.75,148.72,0,154.64,125.36,280,280,280s280-125.36,280-280c0-54.65-15.68-105.62-42.75-148.72l-112.03,89.125c21.77,27.34,34.78,61.95,34.78,99.6,0,88.366-71.634,160-160,160s-160-71.634-160-160c0-37.654,13.015-72.264,34.781-99.594l-112.03-89.13z"/></svg>